<mxfile host="app.diagrams.net" modified="2021-05-02T19:37:08.974Z" agent="5.0 (Windows NT 10.0; Win64; x64) AppleWebKit/537.36 (KHTML, like Gecko) Chrome/89.0.4389.128 Safari/537.36 OPR/75.0.3969.243" etag="mYu6msi7iXg_nCLA18fY" version="14.5.1" type="github">
  <diagram name="Page-1" id="0783ab3e-0a74-02c8-0abd-f7b4e66b4bec">
    <mxGraphModel dx="1297" dy="1113" grid="1" gridSize="10" guides="1" tooltips="1" connect="1" arrows="1" fold="1" page="1" pageScale="1" pageWidth="850" pageHeight="1100" background="#ffffff" math="0" shadow="0">
      <root>
        <mxCell id="0" />
        <mxCell id="1" parent="0" />
        <mxCell id="1c1d494c118603dd-1" value="Pool" style="swimlane;html=1;childLayout=stackLayout;startSize=20;rounded=0;shadow=0;comic=0;labelBackgroundColor=none;strokeWidth=1;fontFamily=Verdana;fontSize=12;align=center;" parent="1" vertex="1">
          <mxGeometry x="40" y="20" width="1030" height="990" as="geometry" />
        </mxCell>
        <mxCell id="1c1d494c118603dd-2" value="Admin" style="swimlane;html=1;startSize=20;" parent="1c1d494c118603dd-1" vertex="1">
          <mxGeometry y="20" width="250" height="970" as="geometry" />
        </mxCell>
        <mxCell id="60571a20871a0731-4" value="" style="ellipse;whiteSpace=wrap;html=1;rounded=0;shadow=0;comic=0;labelBackgroundColor=none;strokeWidth=1;fillColor=#000000;fontFamily=Verdana;fontSize=12;align=center;" parent="1c1d494c118603dd-2" vertex="1">
          <mxGeometry x="100" y="50" width="40" height="40" as="geometry" />
        </mxCell>
        <mxCell id="60571a20871a0731-8" value="Login" style="rounded=1;whiteSpace=wrap;html=1;shadow=0;comic=0;labelBackgroundColor=none;strokeWidth=1;fontFamily=Verdana;fontSize=12;align=center;arcSize=50;" parent="1c1d494c118603dd-2" vertex="1">
          <mxGeometry x="70" y="120" width="100" height="30" as="geometry" />
        </mxCell>
        <mxCell id="1c1d494c118603dd-27" style="edgeStyle=orthogonalEdgeStyle;rounded=0;html=1;labelBackgroundColor=none;startArrow=none;startFill=0;startSize=5;endArrow=classicThin;endFill=1;endSize=5;jettySize=auto;orthogonalLoop=1;strokeWidth=1;fontFamily=Verdana;fontSize=12" parent="1c1d494c118603dd-2" source="60571a20871a0731-4" target="60571a20871a0731-8" edge="1">
          <mxGeometry relative="1" as="geometry" />
        </mxCell>
        <mxCell id="feAVlpUrrlh7gay0loe1-64" value="" style="rhombus;whiteSpace=wrap;html=1;color=black;fillColor=#bac8d3;strokeColor=#23445d;" parent="1c1d494c118603dd-2" vertex="1">
          <mxGeometry x="87.5" y="180" width="65" height="64" as="geometry" />
        </mxCell>
        <mxCell id="feAVlpUrrlh7gay0loe1-66" value="&lt;span style=&quot;font-size: 24px&quot;&gt;[Fail]&lt;/span&gt;" style="edgeStyle=orthogonalEdgeStyle;rounded=0;orthogonalLoop=1;jettySize=auto;html=1;exitX=1;exitY=0.5;exitDx=0;exitDy=0;entryX=1;entryY=0.5;entryDx=0;entryDy=0;" parent="1c1d494c118603dd-2" source="feAVlpUrrlh7gay0loe1-64" target="60571a20871a0731-8" edge="1">
          <mxGeometry x="-0.0076" relative="1" as="geometry">
            <mxPoint x="200" y="140" as="targetPoint" />
            <Array as="points">
              <mxPoint x="200" y="212" />
              <mxPoint x="200" y="135" />
            </Array>
            <mxPoint as="offset" />
          </mxGeometry>
        </mxCell>
        <mxCell id="feAVlpUrrlh7gay0loe1-80" value="" style="line;strokeWidth=11;fillColor=none;align=left;verticalAlign=middle;spacingTop=-1;spacingLeft=3;spacingRight=3;rotatable=0;labelPosition=right;points=[];portConstraint=eastwest;fontStyle=1" parent="1c1d494c118603dd-2" vertex="1">
          <mxGeometry x="65" y="320" width="110" height="20" as="geometry" />
        </mxCell>
        <mxCell id="feAVlpUrrlh7gay0loe1-158" value="" style="endArrow=open;endFill=1;endSize=12;html=1;" parent="1c1d494c118603dd-2" edge="1">
          <mxGeometry width="160" relative="1" as="geometry">
            <mxPoint x="65" y="329.16999999999996" as="sourcePoint" />
            <mxPoint x="65" y="400" as="targetPoint" />
          </mxGeometry>
        </mxCell>
        <mxCell id="feAVlpUrrlh7gay0loe1-162" value="See statics" style="rounded=1;whiteSpace=wrap;html=1;shadow=0;comic=0;labelBackgroundColor=none;strokeWidth=1;fontFamily=Verdana;fontSize=12;align=center;arcSize=50;" parent="1c1d494c118603dd-2" vertex="1">
          <mxGeometry x="20" y="400" width="100" height="30" as="geometry" />
        </mxCell>
        <mxCell id="1c1d494c118603dd-3" value="Human Sources" style="swimlane;html=1;startSize=20;" parent="1c1d494c118603dd-1" vertex="1">
          <mxGeometry x="250" y="20" width="380" height="970" as="geometry" />
        </mxCell>
        <mxCell id="feAVlpUrrlh7gay0loe1-163" value="Add/Remove&lt;br&gt;Human Sources" style="rounded=1;whiteSpace=wrap;html=1;shadow=0;comic=0;labelBackgroundColor=none;strokeWidth=1;fontFamily=Verdana;fontSize=12;align=center;arcSize=50;" parent="1c1d494c118603dd-3" vertex="1">
          <mxGeometry x="150" y="510" width="100" height="40" as="geometry" />
        </mxCell>
        <mxCell id="feAVlpUrrlh7gay0loe1-161" value="" style="endArrow=open;endFill=1;endSize=12;html=1;entryX=0;entryY=0.75;entryDx=0;entryDy=0;" parent="1c1d494c118603dd-1" source="feAVlpUrrlh7gay0loe1-80" edge="1" target="feAVlpUrrlh7gay0loe1-163">
          <mxGeometry width="160" relative="1" as="geometry">
            <mxPoint x="170" y="360" as="sourcePoint" />
            <mxPoint x="300" y="240" as="targetPoint" />
          </mxGeometry>
        </mxCell>
        <mxCell id="1c1d494c118603dd-4" value="Applicant Company" style="swimlane;html=1;startSize=20;" parent="1c1d494c118603dd-1" vertex="1">
          <mxGeometry x="630" y="20" width="400" height="970" as="geometry" />
        </mxCell>
        <mxCell id="feAVlpUrrlh7gay0loe1-109" value="&lt;span style=&quot;font-size: 24px&quot;&gt;[Fail]&lt;/span&gt;" style="edgeStyle=orthogonalEdgeStyle;rounded=0;orthogonalLoop=1;jettySize=auto;html=1;exitX=1;exitY=0.5;exitDx=0;exitDy=0;entryX=1;entryY=0.5;entryDx=0;entryDy=0;" parent="1c1d494c118603dd-4" edge="1">
          <mxGeometry x="-0.0076" relative="1" as="geometry">
            <mxPoint x="157.5" y="515" as="targetPoint" />
            <Array as="points">
              <mxPoint x="187.5" y="592" />
              <mxPoint x="187.5" y="515" />
            </Array>
            <mxPoint as="offset" />
          </mxGeometry>
        </mxCell>
        <mxCell id="5xC203n-c3T-DAP_eadr-2" value="Add/Remove company" style="rounded=1;whiteSpace=wrap;html=1;shadow=0;comic=0;labelBackgroundColor=none;strokeWidth=1;fontFamily=Verdana;fontSize=12;align=center;arcSize=50;" vertex="1" parent="1c1d494c118603dd-4">
          <mxGeometry x="150.00000000000006" y="419.83" width="100" height="40" as="geometry" />
        </mxCell>
        <mxCell id="5xC203n-c3T-DAP_eadr-3" value="" style="endArrow=open;endFill=1;endSize=12;html=1;entryX=0;entryY=0.75;entryDx=0;entryDy=0;" edge="1" parent="1c1d494c118603dd-1" target="5xC203n-c3T-DAP_eadr-2">
          <mxGeometry width="160" relative="1" as="geometry">
            <mxPoint x="170" y="353" as="sourcePoint" />
            <mxPoint x="764.6700000000001" y="249.82999999999998" as="targetPoint" />
          </mxGeometry>
        </mxCell>
        <mxCell id="feAVlpUrrlh7gay0loe1-65" style="edgeStyle=orthogonalEdgeStyle;rounded=0;orthogonalLoop=1;jettySize=auto;html=1;exitX=0.5;exitY=1;exitDx=0;exitDy=0;" parent="1" source="60571a20871a0731-8" edge="1">
          <mxGeometry relative="1" as="geometry">
            <mxPoint x="160" y="220" as="targetPoint" />
          </mxGeometry>
        </mxCell>
        <mxCell id="feAVlpUrrlh7gay0loe1-71" value="&lt;font style=&quot;font-size: 20px&quot;&gt;[Succeeded]&lt;/font&gt;" style="edgeStyle=orthogonalEdgeStyle;rounded=0;orthogonalLoop=1;jettySize=auto;html=1;" parent="1" edge="1">
          <mxGeometry relative="1" as="geometry">
            <mxPoint x="160" y="360" as="targetPoint" />
            <mxPoint x="160" y="280" as="sourcePoint" />
            <Array as="points">
              <mxPoint x="160" y="350" />
            </Array>
          </mxGeometry>
        </mxCell>
        <mxCell id="feAVlpUrrlh7gay0loe1-146" value="Candidate" style="swimlane;html=1;startSize=20;" parent="1" vertex="1">
          <mxGeometry x="1070" y="40" width="370" height="970" as="geometry" />
        </mxCell>
        <mxCell id="feAVlpUrrlh7gay0loe1-155" value="&lt;span style=&quot;font-size: 24px&quot;&gt;[Fail]&lt;/span&gt;" style="edgeStyle=orthogonalEdgeStyle;rounded=0;orthogonalLoop=1;jettySize=auto;html=1;exitX=1;exitY=0.5;exitDx=0;exitDy=0;entryX=1;entryY=0.5;entryDx=0;entryDy=0;" parent="feAVlpUrrlh7gay0loe1-146" edge="1">
          <mxGeometry x="-0.0076" relative="1" as="geometry">
            <mxPoint x="157.5" y="515" as="targetPoint" />
            <Array as="points">
              <mxPoint x="187.5" y="592" />
              <mxPoint x="187.5" y="515" />
            </Array>
            <mxPoint as="offset" />
          </mxGeometry>
        </mxCell>
      </root>
    </mxGraphModel>
  </diagram>
</mxfile>
